<?xml version="1.0" standalone="no"?>
<!DOCTYPE svg PUBLIC "-//W3C//DTD SVG 20010904//EN"
 "http://www.w3.org/TR/2001/REC-SVG-20010904/DTD/svg10.dtd">
<svg version="1.0" xmlns="http://www.w3.org/2000/svg"
 width="185.000000pt" height="185.000000pt" viewBox="0 0 185.000000 185.000000"
 preserveAspectRatio="xMidYMid meet">
<metadata>
Created by potrace 1.11, written by Peter Selinger 2001-2013
</metadata>
<g transform="translate(0.000000,185.000000) scale(0.100000,-0.100000)"
fill="#000000" stroke="none">
<path d="M819 1817 c-167 -74 -462 -241 -624 -355 -85 -59 -98 -81 -111 -182
-14 -105 -10 -664 5 -747 14 -81 21 -89 142 -170 147 -99 302 -187 499 -286
182 -91 192 -91 345 -18 292 139 643 359 661 414 22 65 29 175 29 462 0 284
-6 375 -29 442 -18 54 -362 271 -646 407 -152 73 -175 76 -271 33z m333 -93
c133 -68 386 -218 476 -282 77 -54 90 -74 97 -138 3 -27 7 -69 10 -94 6 -56 6
-500 0 -555 -2 -22 -7 -68 -10 -102 -4 -38 -14 -72 -26 -86 -41 -53 -375 -257
-605 -369 -168 -83 -179 -83 -344 -2 -69 34 -165 85 -213 113 -49 28 -91 51
-93 51 -12 0 -264 168 -296 197 -39 37 -46 109 -47 453 -1 320 9 435 40 475
51 63 486 319 699 410 l75 33 62 -24 c34 -12 113 -49 175 -80z"/>
<path d="M746 1333 c-174 -30 -352 -108 -487 -212 -93 -72 -101 -84 -69 -109
14 -11 38 -31 54 -45 17 -14 34 -23 39 -20 5 3 39 28 75 55 105 80 270 154
387 174 22 4 49 8 60 11 11 2 65 4 120 4 222 1 449 -82 613 -223 l34 -29 46
38 c77 62 77 60 10 116 -127 106 -290 186 -466 228 -109 26 -303 32 -416 12z"/>
<path d="M777 1063 c-103 -17 -220 -63 -309 -122 -69 -45 -106 -77 -97 -85 2
-2 28 -24 57 -50 l53 -47 31 26 c50 42 188 103 272 121 78 16 210 16 296 -1
58 -11 175 -64 233 -105 l55 -38 54 45 c29 25 54 49 56 53 4 11 -88 79 -158
118 -73 41 -186 76 -287 91 -95 14 -148 13 -256 -6z"/>
<path d="M815 795 c-73 -15 -151 -46 -206 -82 l-41 -27 58 -52 59 -52 39 20
c71 36 126 47 220 44 76 -2 102 -7 157 -33 l65 -30 58 52 58 51 -39 25 c-123
81 -287 113 -428 84z"/>
<path d="M865 529 c-92 -17 -93 -19 -23 -80 35 -30 68 -58 75 -62 7 -4 42 19
84 55 l72 63 -43 12 c-58 17 -116 21 -165 12z"/>
</g>
</svg>
